<svg width="1920" height="1080" viewBox="0 0 1920 1080" xmlns="http://www.w3.org/2000/svg"><rect width="1920" height="1080" fill="#dbdbdb"/><path d="M 0,1080 C 0,1080 0,180 0,180 C 118.36410256410255,204.33076923076922 236.7282051282051,228.66153846153844 334,216 C 431.2717948717949,203.33846153846156 507.4512820512821,153.68461538461537 609,158 C 710.5487179487179,162.31538461538463 837.4666666666665,220.60000000000002 951,214 C 1064.5333333333335,207.39999999999998 1164.6820512820514,135.9153846153846 1282,115 C 1399.3179487179486,94.08461538461539 1533.805128205128,123.73846153846154 1643,143 C 1752.194871794872,162.26153846153846 1836.0974358974358,171.13076923076923 1920,180 C 1920,180 1920,1080 1920,1080 Z" fill="#212121" opacity="0.09999999999999999"/><path d="M 0,1080 C 0,1080 0,360 0,360 C 89.87435897435898,322.6025641025641 179.74871794871797,285.20512820512823 298,299 C 416.25128205128203,312.79487179487177 562.8794871794872,377.78205128205127 676,389 C 789.1205128205128,400.21794871794873 868.7333333333333,357.6666666666667 950,354 C 1031.2666666666667,350.3333333333333 1114.1871794871795,385.55128205128204 1235,396 C 1355.8128205128205,406.44871794871796 1514.5179487179487,392.1282051282051 1635,382 C 1755.4820512820513,371.8717948717949 1837.7410256410258,365.93589743589746 1920,360 C 1920,360 1920,1080 1920,1080 Z" fill="#212121" opacity="0.19999999999999998"/><path d="M 0,1080 C 0,1080 0,540 0,540 C 123.87948717948717,529.6435897435897 247.75897435897434,519.2871794871794 353,509 C 458.24102564102566,498.71282051282054 544.8435897435899,488.49487179487187 641,505 C 737.1564102564101,521.5051282051281 842.8666666666666,564.7333333333333 953,564 C 1063.1333333333334,563.2666666666667 1177.6897435897436,518.5717948717949 1280,496 C 1382.3102564102564,473.42820512820515 1472.3743589743588,472.9794871794872 1577,484 C 1681.6256410256412,495.0205128205128 1800.8128205128205,517.5102564102564 1920,540 C 1920,540 1920,1080 1920,1080 Z" fill="#212121" opacity="0.3"/><path d="M 0,1080 C 0,1080 0,720 0,720 C 81.03076923076924,710.6846153846154 162.06153846153848,701.3692307692309 265,716 C 367.9384615384615,730.6307692307691 492.78461538461534,769.2076923076922 608,774 C 723.2153846153847,778.7923076923078 828.8,749.8000000000001 939,720 C 1049.2,690.1999999999999 1164.0153846153846,659.5923076923076 1281,656 C 1397.9846153846154,652.4076923076924 1517.1384615384616,675.8307692307692 1624,691 C 1730.8615384615384,706.1692307692308 1825.4307692307693,713.0846153846154 1920,720 C 1920,720 1920,1080 1920,1080 Z" fill="#212121" opacity="0.39999999999999997"/><path d="M 0,1080 C 0,1080 0,900 0,900 C 112.05384615384614,898.2230769230769 224.10769230769228,896.4461538461538 344,892 C 463.8923076923077,887.5538461538462 591.6230769230768,880.4384615384616 682,880 C 772.3769230769232,879.5615384615384 825.4,885.8000000000001 914,878 C 1002.6,870.1999999999999 1126.7769230769231,848.3615384615384 1248,849 C 1369.2230769230769,849.6384615384616 1487.4923076923078,872.7538461538461 1599,885 C 1710.5076923076922,897.2461538461539 1815.253846153846,898.623076923077 1920,900 C 1920,900 1920,1080 1920,1080 Z" fill="#212121" opacity="0.49999999999999994"/></svg>