<svg width="1920" height="1080" viewBox="0 0 1920 1080" xmlns="http://www.w3.org/2000/svg"><rect width="1920" height="1080" fill="#dd766e"/><path d="M 0,1080 C 0,1080 0,154 0,154 C 105.09090909090907,151.35885167464113 210.18181818181813,148.7177033492823 349,140 C 487.81818181818187,131.2822966507177 660.3636363636364,116.48803827751198 803,118 C 945.6363636363636,119.51196172248802 1058.3636363636365,137.33014354066987 1174,156 C 1289.6363636363635,174.66985645933013 1408.1818181818182,194.19138755980862 1533,194 C 1657.8181818181818,193.80861244019138 1788.909090909091,173.9043062200957 1920,154 C 1920,154 1920,1080 1920,1080 Z" fill="#3640ce" opacity="0.08571428571428572"/><path d="M 0,1080 C 0,1080 0,308 0,308 C 101.59808612440187,291.27272727272725 203.19617224880375,274.54545454545456 325,284 C 446.80382775119625,293.45454545454544 588.8133971291867,329.09090909090907 741,324 C 893.1866028708133,318.90909090909093 1055.5502392344495,273.09090909090907 1177,268 C 1298.4497607655505,262.90909090909093 1378.9856459330144,298.54545454545456 1496,312 C 1613.0143540669856,325.45454545454544 1766.5071770334928,316.72727272727275 1920,308 C 1920,308 1920,1080 1920,1080 Z" fill="#3640ce" opacity="0.17142857142857143"/><path d="M 0,1080 C 0,1080 0,462 0,462 C 154.32535885167465,463.8468899521531 308.6507177033493,465.6937799043062 429,466 C 549.3492822966507,466.3062200956938 635.7224880382776,465.07177033492826 744,460 C 852.2775119617224,454.92822966507174 982.4593301435407,446.0191387559808 1121,452 C 1259.5406698564593,457.9808612440192 1406.44019138756,478.85167464114835 1541,483 C 1675.55980861244,487.14832535885165 1797.77990430622,474.57416267942585 1920,462 C 1920,462 1920,1080 1920,1080 Z" fill="#3640ce" opacity="0.2571428571428571"/><path d="M 0,1080 C 0,1080 0,617 0,617 C 146.1818181818182,631.2488038277511 292.3636363636364,645.4976076555023 404,639 C 515.6363636363636,632.5023923444977 592.7272727272725,605.2583732057417 721,608 C 849.2727272727275,610.7416267942583 1028.727272727273,643.4688995215312 1158,640 C 1287.272727272727,636.5311004784688 1366.3636363636363,596.866028708134 1485,587 C 1603.6363636363637,577.133971291866 1761.818181818182,597.0669856459331 1920,617 C 1920,617 1920,1080 1920,1080 Z" fill="#3640ce" opacity="0.34285714285714286"/><path d="M 0,1080 C 0,1080 0,771 0,771 C 131.98086124401914,773.2392344497607 263.9617224880383,775.4784688995215 395,765 C 526.0382775119617,754.5215311004785 656.1339712918659,731.3253588516745 793,722 C 929.8660287081341,712.6746411483255 1073.5023923444976,717.2200956937799 1192,722 C 1310.4976076555024,726.7799043062201 1403.8564593301435,731.7942583732058 1521,740 C 1638.1435406698565,748.2057416267942 1779.0717703349283,759.6028708133971 1920,771 C 1920,771 1920,1080 1920,1080 Z" fill="#3640ce" opacity="0.4285714285714286"/><path d="M 0,1080 C 0,1080 0,925 0,925 C 106.08612440191385,922.8564593301435 212.1722488038277,920.7129186602871 343,905 C 473.8277511961723,889.2870813397129 629.397129186603,860.0047846889952 761,875 C 892.602870813397,889.9952153110048 1000.2392344497607,949.2679425837321 1115,969 C 1229.7607655502393,988.7320574162679 1351.6459330143541,968.9234449760766 1487,955 C 1622.3540669856459,941.0765550239234 1771.1770334928228,933.0382775119617 1920,925 C 1920,925 1920,1080 1920,1080 Z" fill="#3640ce" opacity="0.5142857142857142"/><path d="M 0,1080 C 0,1080 0,1079 0,1079 C 107.78947368421055,1044.6267942583731 215.5789473684211,1010.2535885167465 329,1027 C 442.4210526315789,1043.7464114832535 561.4736842105264,1111.6124401913876 699,1114 C 836.5263157894736,1116.3875598086124 992.5263157894738,1053.2966507177036 1142,1041 C 1291.4736842105262,1028.7033492822964 1434.421052631579,1067.200956937799 1563,1082 C 1691.578947368421,1096.799043062201 1805.7894736842104,1087.8995215311006 1920,1079 C 1920,1079 1920,1080 1920,1080 Z" fill="#3640ce" opacity="0.6"/></svg>